# xmcd
#
# Track frame offsets:
#	150
#	11691
#	25609
#	40960
#	50330
#	61864
#	74238
#	87309
#	100315
#	112705
#	123374
#	136848
#	150198
#	167410
#	180822
#	194879
#	209866
#	220341
#	230838
#	246466
#	262156
#	272668
#	284262
#
# Disc length: 3923 seconds
#
# Revision: 1
# Processed by: cddbd v1.5.2PL0 Copyright (c) Steve Scherf et al.
# Submitted via: audiograbber 1.83.01
#
DISCID=530f5117
DTITLE=Kenny Rogers - Golden Hits [2CD] (2014) [CD 2)
DYEAR=2014
DGENRE=Country
TTITLE0=Me And Bobby McGee
TTITLE1=Molly
TTITLE2=My Washington Woman
TTITLE3=Once Again She's All Alone
TTITLE4=Poem For My Little Lady
TTITLE5=Ruben James
TTITLE6=Ruby Don't Take Your Love To Town
TTITLE7=Run Thru Your Mind
TTITLE8=Shadow In The Corner Of Your Mind
TTITLE9=She Even Woke Me Up To Say Goodbye
TTITLE10=Shine On Ruby Mountain
TTITLE11=Sleep Comes Easy
TTITLE12=Something's Burning
TTITLE13=A Stranger In My Place
TTITLE14=Sunshine
TTITLE15=Tell It All Brother
TTITLE16=Ticket To Nowhere
TTITLE17=Trying Just As Hard
TTITLE18=Tulsa Turnaround
TTITLE19=The Way It Used To Be
TTITLE20=We All Got To Help Each Other
TTITLE21=What Am I Gonna Do
TTITLE22=Where Does Rosie Go
EXTD=MARO\n
EXTT0=
EXTT1=
EXTT2=
EXTT3=
EXTT4=
EXTT5=
EXTT6=
EXTT7=
EXTT8=
EXTT9=
EXTT10=
EXTT11=
EXTT12=
EXTT13=
EXTT14=
EXTT15=
EXTT16=
EXTT17=
EXTT18=
EXTT19=
EXTT20=
EXTT21=
EXTT22=
PLAYORDER=
